<?xml version="1.0" encoding="utf-8"?>
<!-- Generator: Adobe Illustrator 25.4.1, SVG Export Plug-In . SVG Version: 6.00 Build 0)  -->
<svg version="1.1" id="e92a7c85-8b7e-40a9-ac7b-a4012cc646d7"
	 xmlns="http://www.w3.org/2000/svg" xmlns:xlink="http://www.w3.org/1999/xlink" x="0px" y="0px" viewBox="0 0 407.9 112"
	 style="enable-background:new 0 0 407.9 112;" xml:space="preserve">
<style type="text/css">
	.st0{fill:#F47E5E;}
	.st1{clip-path:url(#SVGID_00000026127827550658653260000013453384302775723947_);}
	.st2{fill:#383B4A;}
	.st3{clip-path:url(#SVGID_00000148662462131791161280000014153415490382433718_);}
</style>
<polygon class="st0" points="15.2,29.6 15.2,37.9 37.5,37.9 37.5,79.4 47.3,79.4 47.3,37.9 69.6,37.9 69.6,29.6 "/>
<polygon class="st0" points="71.9,29.6 71.9,79.4 117.7,79.4 117.7,71.1 81.7,71.1 81.7,57.9 112,57.9 112,49.5 81.7,49.5 
	81.7,37.9 116.9,37.9 116.9,29.6 "/>
<g>
	<defs>
		<rect id="SVGID_1_" x="15.2" y="19.8" width="374.6" height="60.7"/>
	</defs>
	<clipPath id="SVGID_00000089558295122099133290000018274621426552235948_">
		<use xlink:href="#SVGID_1_"  style="overflow:visible;"/>
	</clipPath>
	<g style="clip-path:url(#SVGID_00000089558295122099133290000018274621426552235948_);">
		<path class="st2" d="M268.1,44.4c-1.6-4.5-5.6-8.3-17.4-8.3c-6.6,0-13.2,1.7-13.2,6.3c0,2.1,1.2,4.4,11.1,5.7l11.8,1.8
			c11.1,1.7,17.7,6.1,17.7,14.5c0,11.9-11.2,16.3-24.5,16.3c-21.3,0-26.5-10.6-27.7-14.4l9.4-3c1.8,3.7,5.5,9,18.6,9
			c7.9,0,14.5-2.6,14.5-7c0-3.2-3.7-5.4-10.8-6.3l-11.9-1.7c-11.5-1.6-17.9-6.6-17.9-14.3c0-15,19.3-15,23.2-15
			c21.4,0,25.1,10,26.3,13.5L268.1,44.4z"/>
	</g>
</g>
<polygon class="st2" points="319.1,29.6 291.3,52.8 291.3,29.6 281.5,29.6 281.5,79.4 291.3,79.4 291.3,63.9 302,55.1 322.6,79.4 
	335.4,79.4 309.1,49.3 333,29.6 "/>
<polygon class="st2" points="377.7,29.6 360.3,50.7 342.9,29.6 330.8,29.6 355.4,59.5 355.4,79.4 365.2,79.4 365.2,59.5 389.8,29.6 
	"/>
<polygon class="st0" points="205.9,66.3 215.2,79.4 231.1,79.4 205.9,43.3 "/>
<g>
	<defs>
		<rect id="SVGID_00000182518209589197218250000008107648006434956426_" x="15.2" y="19.8" width="374.6" height="60.7"/>
	</defs>
	<clipPath id="SVGID_00000114753592641414853310000002552647008056537753_">
		<use xlink:href="#SVGID_00000182518209589197218250000008107648006434956426_"  style="overflow:visible;"/>
	</clipPath>
	<g style="clip-path:url(#SVGID_00000114753592641414853310000002552647008056537753_);">
		<path class="st0" d="M180.4,79.4l15.5-22.3l10-14.2V19.8l-20.8,29.8l-17,24.5L156.9,59c7.3-0.4,13.9-5.5,13.9-14.8
			c0-12.3-8.5-15-20.3-15h-29.9v50.2h9.7V59.7h15.4l14.4,19.7 M130.2,51.5V37.4H149c7.9,0,12,1.2,12,7s-4,7.1-12,7.1L130.2,51.5z"/>
	</g>
</g>
</svg>