<?xml version="1.0" encoding="utf-8"?>
<svg viewBox="48.143 55.4971 110.0613 52.7" xmlns="http://www.w3.org/2000/svg">
  <polygon class="st0" points="48.143 57.668 48.143 65.968 70.443 65.968 70.443 107.468 80.243 107.468 80.243 65.968 102.543 65.968 102.543 57.668" style="fill: rgb(244, 126, 94);"/>
  <g transform="matrix(1, 0, 0, 1, -119.8957290649414, 27.49705696105957)">
    <defs>
      <rect id="SVGID_1_" x="15.2" y="19.8" width="374.6" height="60.7"/>
    </defs>
    <clipPath id="SVGID_00000089558295122099133290000018274621426552235948_">
      <rect x="15.2" y="19.8" width="374.6" height="60.7" style="overflow: visible;"/>
    </clipPath>
    <g style="clip-path:url(#SVGID_00000089558295122099133290000018274621426552235948_);">
      <path class="st2" d="M268.1,44.4c-1.6-4.5-5.6-8.3-17.4-8.3c-6.6,0-13.2,1.7-13.2,6.3c0,2.1,1.2,4.4,11.1,5.7l11.8,1.8 c11.1,1.7,17.7,6.1,17.7,14.5c0,11.9-11.2,16.3-24.5,16.3c-21.3,0-26.5-10.6-27.7-14.4l9.4-3c1.8,3.7,5.5,9,18.6,9 c7.9,0,14.5-2.6,14.5-7c0-3.2-3.7-5.4-10.8-6.3l-11.9-1.7c-11.5-1.6-17.9-6.6-17.9-14.3c0-15,19.3-15,23.2-15 c21.4,0,25.1,10,26.3,13.5L268.1,44.4z" style="fill: rgb(56, 59, 74);"/>
    </g>
  </g>
</svg>